<?xml version="1.0" encoding="utf-8"?>
<!-- Generator: Adobe Illustrator 27.5.0, SVG Export Plug-In . SVG Version: 6.00 Build 0)  -->
<svg version="1.1" id="Layer_1" xmlns="http://www.w3.org/2000/svg" xmlns:xlink="http://www.w3.org/1999/xlink" x="0px" y="0px"
	 viewBox="0 0 512 512" style="enable-background:new 0 0 512 512;" xml:space="preserve">
<style type="text/css">
	.st0{fill:#CAA550;}
	.st1{fill:#1B1414;}
	.st2{fill:#AD8E3B;}
	.st3{fill:#EDBEA6;}
	.st4{fill:#B1806C;}
	.st5{fill:#FFFFFF;}
	.st6{fill:#C8C8C8;}
</style>
<path class="st0" d="M107.74,47.69C155.13,13.51,214.37-3.42,272.52,0.57c51.3,3.19,101.31,22.54,141.65,54.57
	c12.43,9.44,22.7,21.36,34.66,31.35c3.99,5.01,7.57,10.29,11.17,15.58c0.14,0.17,0.38,0.52,0.52,0.72c1.37,1.93,2.76,3.83,4.18,5.72
	c8.66,12.41,16.28,25.54,22.7,39.27c-46.82-16.57-92.24-36.93-138.67-54.57c-12.35-4.6-24.04-11.75-37.53-12.3
	c-1.86-0.19-3.69-0.41-5.52-0.61c-11.94-12.55-30.05-15.49-46.46-16.73c-19.07-1.05-39.93-0.47-55.91,11.39
	c-6.83,6.55-9.59,15.99-15.08,23.53c-4.89,4.38-11.28,6.61-16.31,10.79c-11.44,9.41-17.15,24.3-15.92,39.03
	c-2.29,21.66,4.04,42.66,8.52,63.57c-3.99,5.45-9.07,11.26-7.87,18.63c1.42,16.54,4.07,33.41,10.76,48.69
	c1.97,6.03,8.33,7.73,13.55,9.83c-0.11,11.83,0.87,23.75,5.3,34.84c1.61,10.05,1.23,20.28,0.87,30.41
	c-2.21,2.15-4.42,4.27-6.61,6.44c-3.77,3.44-7.68,6.72-11.74,9.8c-11.74,8.59-22.89,18.36-36.3,24.3
	c-23.85,11.89-49.88,18.05-75.11,26.09c-49.71-60.79-68.61-144.9-50.8-221.46C20.28,138.62,57.15,83.58,107.74,47.69z"/>
<path class="st1" d="M203.31,74.96c15.98-11.86,36.85-12.44,55.91-11.39c16.42,1.24,34.52,4.18,46.46,16.73
	c1.83,0.19,3.66,0.41,5.52,0.61c3.71,6.41,6.53,13.68,12.02,18.82c8.99,6.19,21.41,9.3,25.87,20.45
	c12.89,29.31,3.69,62.06-2.84,91.81c-1.31,4.43-2.65,8.86-3.96,13.32c-2.29-1.13-4.56-2.23-6.83-3.36
	c-0.19-14.26,1.64-28.9-2.68-42.74c-3.03-9.16-1.91-19.32-5-28.32c-18.08-18.08-46.13-17.48-69.62-14.37
	c-22.45,4.9-45.12-11.06-66.95,0.03c-3.2,4.46-6.39,8.94-9.61,13.4c0.16,12.36-2.7,24.33-5.05,36.36
	c-0.68,14.01,2.29,27.91,2.16,41.94c-1.86,0.11-5.57,0.3-7.43,0.41c-2.46-5.5-4.89-11.04-6.75-16.79
	c-4.48-20.92-10.82-41.92-8.52-63.57c-1.23-14.72,4.48-29.61,15.92-39.03c5.03-4.18,11.42-6.41,16.31-10.79
	C193.72,90.95,196.48,81.51,203.31,74.96z"/>
<path class="st2" d="M311.2,80.91c13.49,0.55,25.18,7.71,37.53,12.3c46.43,17.64,91.86,38.01,138.67,54.57
	c18.03,37.51,26.03,79.7,24.39,121.29c-2.21,55.26-22.83,109.51-57.61,152.3c-24.15-8.56-49.49-13.82-72.52-25.4
	c-13.77-5.67-25.37-15.16-37.39-23.75c-3.36-2.5-6.36-5.45-9.37-8.34c-2.87-3.05-6.39-5.37-10.38-6.63
	c-0.46-10.54-0.93-21.08-0.44-31.62c4.89-11.56,6.31-24.08,6.42-36.55c5.05-2.12,11.06-3.8,13.14-9.55
	c7.29-15.25,9.72-32.45,10.93-49.15c1.2-7.46-4.1-13.1-8.33-18.38c6.53-29.75,15.73-62.5,2.84-91.81
	c-4.45-11.15-16.88-14.26-25.87-20.45C317.73,94.59,314.91,87.32,311.2,80.91z"/>
<path class="st3" d="M460,102.07l0.25,0.33l0.27,0.39C460.39,102.6,460.14,102.24,460,102.07z"/>
<path class="st3" d="M191.21,136.56c21.82-11.09,44.49,4.87,66.95-0.03c23.49-3.11,51.54-3.72,69.62,14.37
	c3.09,9,1.97,19.15,5,28.32c4.32,13.84,2.49,28.48,2.68,42.74c2.27,1.13,4.53,2.23,6.83,3.36c1.31-4.46,2.65-8.89,3.96-13.32
	c4.23,5.28,9.53,10.93,8.33,18.38c-1.2,16.71-3.63,33.91-10.93,49.15c-2.08,5.75-8.08,7.43-13.14,9.55
	c0.16-8.23,0.19-16.46,0.14-24.69c-10.32,14.86-10.63,35.83-26.82,46.37c-4.89-12.49-10.65-26.72-24.53-31.29
	c-8.39-4.54-16.63,2.31-25.07,2.61c-5.14-1.1-9.94-3.3-14.8-5.23c-8.14,2.97-16.91,6.08-22.4,13.24
	c-4.34,6.36-6.58,13.84-9.53,20.89c-5.19-5.09-11.61-9.6-13.9-16.84c-3.58-10.05-6.99-20.31-13.47-28.93
	c0.33,7.93,0.71,15.85,0.85,23.81c-5.22-2.09-11.58-3.8-13.55-9.83c-6.69-15.27-9.34-32.15-10.76-48.69
	c-1.2-7.38,3.88-13.18,7.87-18.63c1.86,5.75,4.29,11.28,6.75,16.79c1.86-0.11,5.57-0.3,7.43-0.41c0.14-14.04-2.84-27.93-2.16-41.94
	c2.35-12.03,5.22-24,5.05-36.36C184.82,145.5,188.01,141.02,191.21,136.56z"/>
<path class="st1" d="M180.12,265.22c6.47,8.61,9.89,18.88,13.47,28.93c2.29,7.24,8.71,11.75,13.9,16.84
	c2.95-7.05,5.19-14.53,9.53-20.89c5.49-7.16,14.26-10.27,22.4-13.24c4.86,1.93,9.67,4.13,14.8,5.23c8.44-0.3,16.69-7.16,25.07-2.61
	c13.88,4.57,19.64,18.8,24.53,31.29c16.2-10.54,16.5-31.51,26.82-46.37c0.05,8.23,0.03,16.46-0.14,24.69
	c-0.11,12.47-1.53,24.99-6.42,36.55c-11.12,15.91-27.94,26.31-44.79,35.01c-14.37,5.72-30.32,3.14-45.2,1.35
	c-18.03-9.44-37.01-20.01-47.83-38.12c-4.42-11.09-5.41-23.01-5.3-34.84C180.83,281.07,180.45,273.15,180.12,265.22 M230.4,298.11
	c-6.88,9.05-12.48,21.93-4.67,32.26c9.45,2.42,18.93,2.89,28.32-0.03c10.32,1.24,20.43,3.58,30.7,0.11
	c1.75-3.11,3.47-6.22,5.24-9.33c-1.28-8.39-4.45-16.27-9.53-23.04c-7.92-1.62-15.81-3.66-23.85-4.71
	C247.72,293.84,239.09,296.37,230.4,298.11z"/>
<path class="st3" d="M230.4,298.11c8.69-1.73,17.32-4.27,26.22-4.73c8.03,1.05,15.92,3.08,23.85,4.71
	c5.08,6.77,8.25,14.64,9.53,23.04c-1.78,3.11-3.5,6.22-5.24,9.33c-10.27,3.47-20.38,1.13-30.7-0.11c-9.4,2.92-18.87,2.45-28.32,0.03
	C217.92,320.04,223.52,307.16,230.4,298.11z"/>
<path class="st3" d="M186.26,323.87c10.82,18.11,29.8,28.68,47.83,38.12c15.1,4.68,31.19,8.37,47.03,6.5
	c14.31-4.32,28.19-10.79,43.4-11.23c3.99,1.27,7.51,3.58,10.38,6.63c-0.79,9.63,1.69,20.61-4.59,28.87
	c-9.64,12.27-23.63,21-38.73,24.6c-27.83,7.32-58.34,6.5-85-4.84c-10.87-5.45-21.77-12.8-27.59-23.86
	c-4.86-8.89-1.39-19.07,1.53-27.93c2.19-2.17,4.4-4.29,6.61-6.44C187.49,344.15,187.88,333.91,186.26,323.87z"/>
<path class="st4" d="M279.3,360.64c16.85-8.7,33.68-19.1,44.79-35.01c-0.49,10.54-0.03,21.08,0.44,31.62
	c-15.21,0.44-29.09,6.91-43.4,11.23c-15.84,1.87-31.93-1.82-47.03-6.5C248.98,363.77,264.93,366.36,279.3,360.64z"/>
<path class="st5" d="M168.78,370.52c4.07-3.08,7.98-6.36,11.74-9.8c-2.92,8.86-6.39,19.04-1.53,27.93
	c5.82,11.06,16.72,18.41,27.59,23.86c26.66,11.34,57.17,12.16,85,4.84c15.1-3.61,29.09-12.33,38.73-24.6
	c6.28-8.26,3.8-19.24,4.59-28.87c3,2.89,6.01,5.83,9.37,8.34c3.14,18.82,1.47,38.36-5.85,56.06
	c-10.52,25.46-22.12,50.53-35.97,74.31c-2.43,3.69-4.83,8.94-10.13,8.23c-26.33,0.58-52.61-0.36-78.8-3.14
	c-11.88-13.93-18.16-31.79-26.49-47.97C173.89,432.33,159.47,401.42,168.78,370.52z"/>
<path class="st6" d="M132.48,394.82c13.41-5.94,24.56-15.71,36.3-24.3c-9.31,30.91,5.11,61.81,18.25,89.2
	c8.33,16.18,14.61,34.04,26.49,47.97c26.19,2.78,52.47,3.72,78.8,3.14c5.3,0.72,7.7-4.54,10.13-8.23
	c13.85-23.78,25.46-48.85,35.97-74.31c7.32-17.7,8.99-37.24,5.85-56.06c12.02,8.59,23.63,18.08,37.39,23.75
	c23.03,11.59,48.37,16.84,72.52,25.4c-25.68,32.72-60.28,57.85-98.14,74.39c-22.1,8.67-45.2,17.94-69.4,15.96
	c-26.41-1.35-52.88,0.88-79.26-0.28c-58.56-10.79-112.64-43.92-150.01-90.55C82.61,412.87,108.64,406.71,132.48,394.82z"/>
</svg>
